<svg viewBox="0 0 16 16" xmlns="http://www.w3.org/2000/svg"><g fill="#DD0044" fill-opacity="1"><circle cx="12.5" cy="5.5" r="2.5"/><path d="m10 12.492a3.494 3.494 0 0 0 -3.492-3.492h-.025a3.485 3.485 0 0 0 -3.483 3.483v1.517h7zm-.561-2.701a3.992 3.992 0 0 1 1.061 2.714v.495h5.5v-1.508a3.494 3.494 0 0 0 -3.492-3.492h-.025a3.483 3.483 0 0 0 -3.044 1.791z"/><circle cx="6.5" cy="6.5" r="2.5"/><path d="m7.29 3.669a2.5 2.5 0 1 1 4.71-1.169v.042a3.003 3.003 0 0 0 -2.458 2.458h-.042c-.173 0-.341-.018-.504-.051a2.95 2.95 0 0 0 -1.706-1.28z"/></g></svg>